<?xml version="1.0" standalone="no"?>
<!DOCTYPE svg PUBLIC "-//W3C//DTD SVG 20010904//EN"
 "http://www.w3.org/TR/2001/REC-SVG-20010904/DTD/svg10.dtd">
<svg version="1.0" xmlns="http://www.w3.org/2000/svg"
 width="22px" height="22px" viewBox="0 0 48.000000 48.000000"
 preserveAspectRatio="xMidYMid meet">

<g transform="translate(0.000000,48.000000) scale(0.100000,-0.100000)"
fill="#013571" stroke="none">
<path d="M193 418 c-10 -14 -98 -169 -127 -225 l-17 -33 101 0 c98 0 100 1 90
20 -8 14 -21 20 -45 20 -19 0 -35 5 -35 11 0 6 25 55 55 109 30 54 55 101 55
104 0 12 -68 6 -77 -6z"/>
<path d="M265 343 c-21 -37 -44 -78 -52 -90 -11 -20 -11 -23 1 -23 8 0 23 16
35 36 12 19 25 33 30 29 5 -3 35 -53 66 -111 l57 -106 20 32 19 33 -67 131
c-37 72 -68 132 -70 134 -1 2 -19 -27 -39 -65z"/>
<path d="M264 226 c-3 -8 2 -28 10 -45 9 -16 16 -35 16 -40 0 -6 -47 -11 -120
-13 l-119 -3 25 -32 25 -33 135 0 c74 0 134 3 134 6 0 9 -91 174 -96 174 -3 0
-7 -6 -10 -14z"/>
</g>
</svg>
